<svg xmlns="http://www.w3.org/2000/svg" xmlns:xlink="http://www.w3.org/1999/xlink" width="2245" zoomAndPan="magnify" viewBox="0 0 1683.75 906.74999" height="1209" preserveAspectRatio="xMidYMid meet" version="1.0"><defs><g/><clipPath id="id1"><path d="M 0.105469 0 L 1683.394531 0 L 1683.394531 906.5 L 0.105469 906.5 Z M 0.105469 0 " clip-rule="nonzero"/></clipPath><clipPath id="id2"><path d="M 39.183594 0 L 190.664062 0 L 190.664062 113.984375 L 39.183594 113.984375 Z M 39.183594 0 " clip-rule="nonzero"/></clipPath><clipPath id="id3"><path d="M 262.894531 0 L 414.375 0 L 414.375 113.984375 L 262.894531 113.984375 Z M 262.894531 0 " clip-rule="nonzero"/></clipPath><clipPath id="id4"><path d="M 486.605469 0 L 638.085938 0 L 638.085938 113.984375 L 486.605469 113.984375 Z M 486.605469 0 " clip-rule="nonzero"/></clipPath><clipPath id="id5"><path d="M 710.195312 0 L 861.675781 0 L 861.675781 113.984375 L 710.195312 113.984375 Z M 710.195312 0 " clip-rule="nonzero"/></clipPath><clipPath id="id6"><path d="M 933.78125 0 L 1085.265625 0 L 1085.265625 113.984375 L 933.78125 113.984375 Z M 933.78125 0 " clip-rule="nonzero"/></clipPath><clipPath id="id7"><path d="M 1157.617188 0 L 1309.097656 0 L 1309.097656 113.984375 L 1157.617188 113.984375 Z M 1157.617188 0 " clip-rule="nonzero"/></clipPath><clipPath id="id8"><path d="M 1381.207031 0 L 1532.6875 0 L 1532.6875 113.984375 L 1381.207031 113.984375 Z M 1381.207031 0 " clip-rule="nonzero"/></clipPath><clipPath id="id9"><path d="M 1604.792969 0 L 1683.394531 0 L 1683.394531 113.984375 L 1604.792969 113.984375 Z M 1604.792969 0 " clip-rule="nonzero"/></clipPath><clipPath id="id10"><path d="M 0.105469 793.273438 L 78.871094 793.273438 L 78.871094 906.5 L 0.105469 906.5 Z M 0.105469 793.273438 " clip-rule="nonzero"/></clipPath><clipPath id="id11"><path d="M 151.101562 793.273438 L 302.582031 793.273438 L 302.582031 906.5 L 151.101562 906.5 Z M 151.101562 793.273438 " clip-rule="nonzero"/></clipPath><clipPath id="id12"><path d="M 374.8125 793.273438 L 526.292969 793.273438 L 526.292969 906.5 L 374.8125 906.5 Z M 374.8125 793.273438 " clip-rule="nonzero"/></clipPath><clipPath id="id13"><path d="M 598.402344 793.273438 L 749.882812 793.273438 L 749.882812 906.5 L 598.402344 906.5 Z M 598.402344 793.273438 " clip-rule="nonzero"/></clipPath><clipPath id="id14"><path d="M 821.988281 793.273438 L 973.46875 793.273438 L 973.46875 906.5 L 821.988281 906.5 Z M 821.988281 793.273438 " clip-rule="nonzero"/></clipPath><clipPath id="id15"><path d="M 1045.824219 793.273438 L 1197.304688 793.273438 L 1197.304688 906.5 L 1045.824219 906.5 Z M 1045.824219 793.273438 " clip-rule="nonzero"/></clipPath><clipPath id="id16"><path d="M 1269.414062 793.273438 L 1420.894531 793.273438 L 1420.894531 906.5 L 1269.414062 906.5 Z M 1269.414062 793.273438 " clip-rule="nonzero"/></clipPath><clipPath id="id17"><path d="M 1493 793.273438 L 1644.480469 793.273438 L 1644.480469 906.5 L 1493 906.5 Z M 1493 793.273438 " clip-rule="nonzero"/></clipPath><clipPath id="id18"><path d="M 1.636719 111.335938 L 153.121094 111.335938 L 153.121094 225.320312 L 1.636719 225.320312 Z M 1.636719 111.335938 " clip-rule="nonzero"/></clipPath><clipPath id="id19"><path d="M 225.351562 111.335938 L 376.832031 111.335938 L 376.832031 225.320312 L 225.351562 225.320312 Z M 225.351562 111.335938 " clip-rule="nonzero"/></clipPath><clipPath id="id20"><path d="M 449.0625 111.335938 L 600.542969 111.335938 L 600.542969 225.320312 L 449.0625 225.320312 Z M 449.0625 111.335938 " clip-rule="nonzero"/></clipPath><clipPath id="id21"><path d="M 672.648438 111.335938 L 824.128906 111.335938 L 824.128906 225.320312 L 672.648438 225.320312 Z M 672.648438 111.335938 " clip-rule="nonzero"/></clipPath><clipPath id="id22"><path d="M 896.238281 111.335938 L 1047.71875 111.335938 L 1047.71875 225.320312 L 896.238281 225.320312 Z M 896.238281 111.335938 " clip-rule="nonzero"/></clipPath><clipPath id="id23"><path d="M 1120.074219 111.335938 L 1271.554688 111.335938 L 1271.554688 225.320312 L 1120.074219 225.320312 Z M 1120.074219 111.335938 " clip-rule="nonzero"/></clipPath><clipPath id="id24"><path d="M 1343.660156 111.335938 L 1495.140625 111.335938 L 1495.140625 225.320312 L 1343.660156 225.320312 Z M 1343.660156 111.335938 " clip-rule="nonzero"/></clipPath><clipPath id="id25"><path d="M 1567.25 111.335938 L 1683.394531 111.335938 L 1683.394531 225.320312 L 1567.25 225.320312 Z M 1567.25 111.335938 " clip-rule="nonzero"/></clipPath><clipPath id="id26"><path d="M 0.105469 680.757812 L 115.941406 680.757812 L 115.941406 794.742188 L 0.105469 794.742188 Z M 0.105469 680.757812 " clip-rule="nonzero"/></clipPath><clipPath id="id27"><path d="M 188.171875 680.757812 L 339.652344 680.757812 L 339.652344 794.742188 L 188.171875 794.742188 Z M 188.171875 680.757812 " clip-rule="nonzero"/></clipPath><clipPath id="id28"><path d="M 411.882812 680.757812 L 563.367188 680.757812 L 563.367188 794.742188 L 411.882812 794.742188 Z M 411.882812 680.757812 " clip-rule="nonzero"/></clipPath><clipPath id="id29"><path d="M 635.472656 680.757812 L 786.953125 680.757812 L 786.953125 794.742188 L 635.472656 794.742188 Z M 635.472656 680.757812 " clip-rule="nonzero"/></clipPath><clipPath id="id30"><path d="M 859.0625 680.757812 L 1010.542969 680.757812 L 1010.542969 794.742188 L 859.0625 794.742188 Z M 859.0625 680.757812 " clip-rule="nonzero"/></clipPath><clipPath id="id31"><path d="M 1082.894531 680.757812 L 1234.378906 680.757812 L 1234.378906 794.742188 L 1082.894531 794.742188 Z M 1082.894531 680.757812 " clip-rule="nonzero"/></clipPath><clipPath id="id32"><path d="M 1306.484375 680.757812 L 1457.964844 680.757812 L 1457.964844 794.742188 L 1306.484375 794.742188 Z M 1306.484375 680.757812 " clip-rule="nonzero"/></clipPath><clipPath id="id33"><path d="M 1530.074219 680.757812 L 1681.554688 680.757812 L 1681.554688 794.742188 L 1530.074219 794.742188 Z M 1530.074219 680.757812 " clip-rule="nonzero"/></clipPath><clipPath id="id34"><path d="M 793.054688 418.554688 L 956.695312 418.554688 L 956.695312 596.992188 L 793.054688 596.992188 Z M 793.054688 418.554688 " clip-rule="nonzero"/></clipPath><clipPath id="id35"><path d="M 804.519531 431.074219 L 945.550781 431.074219 L 945.550781 584.933594 L 804.519531 584.933594 Z M 804.519531 431.074219 " clip-rule="nonzero"/></clipPath><clipPath id="id36"><path d="M 843.59375 370.296875 L 904.972656 370.296875 L 904.972656 492.929688 L 843.59375 492.929688 Z M 843.59375 370.296875 " clip-rule="nonzero"/></clipPath><clipPath id="id37"><path d="M 856.296875 389.800781 L 893.984375 389.800781 L 893.984375 488.335938 L 856.296875 488.335938 Z M 856.296875 389.800781 " clip-rule="nonzero"/></clipPath></defs><g clip-path="url(#id1)"><path fill="#ffffff" d="M 0.105469 0 L 1683.644531 0 L 1683.644531 913.382812 L 0.105469 913.382812 Z M 0.105469 0 " fill-opacity="1" fill-rule="nonzero"/><path fill="#ffffff" d="M 0.105469 0 L 1683.644531 0 L 1683.644531 906.632812 L 0.105469 906.632812 Z M 0.105469 0 " fill-opacity="1" fill-rule="nonzero"/><path fill="#ffffff" d="M 0.105469 0 L 1683.644531 0 L 1683.644531 906.632812 L 0.105469 906.632812 Z M 0.105469 0 " fill-opacity="1" fill-rule="nonzero"/><path fill="#ffffff" d="M 0.105469 0 L 1683.644531 0 L 1683.644531 906.632812 L 0.105469 906.632812 Z M 0.105469 0 " fill-opacity="1" fill-rule="nonzero"/></g><g clip-path="url(#id2)"><path fill="#1ea589" d="M 77.054688 0 L 190.664062 0 L 152.792969 113.984375 L 39.183594 113.984375 L 77.054688 0 " fill-opacity="1" fill-rule="nonzero"/></g><g clip-path="url(#id3)"><path fill="#1ea589" d="M 300.765625 0 L 414.375 0 L 376.503906 113.984375 L 262.894531 113.984375 L 300.765625 0 " fill-opacity="1" fill-rule="nonzero"/></g><g clip-path="url(#id4)"><path fill="#1ea589" d="M 524.476562 0 L 638.085938 0 L 600.21875 113.984375 L 486.605469 113.984375 L 524.476562 0 " fill-opacity="1" fill-rule="nonzero"/></g><g clip-path="url(#id5)"><path fill="#1ea589" d="M 748.066406 0 L 861.675781 0 L 823.804688 113.984375 L 710.195312 113.984375 L 748.066406 0 " fill-opacity="1" fill-rule="nonzero"/></g><g clip-path="url(#id6)"><path fill="#1ea589" d="M 971.652344 0 L 1085.265625 0 L 1047.394531 113.984375 L 933.78125 113.984375 L 971.652344 0 " fill-opacity="1" fill-rule="nonzero"/></g><g clip-path="url(#id7)"><path fill="#1ea589" d="M 1195.488281 0 L 1309.097656 0 L 1271.230469 113.984375 L 1157.617188 113.984375 L 1195.488281 0 " fill-opacity="1" fill-rule="nonzero"/></g><g clip-path="url(#id8)"><path fill="#1ea589" d="M 1419.078125 0 L 1532.6875 0 L 1494.816406 113.984375 L 1381.207031 113.984375 L 1419.078125 0 " fill-opacity="1" fill-rule="nonzero"/></g><g clip-path="url(#id9)"><path fill="#1ea589" d="M 1642.664062 0 L 1756.273438 0 L 1718.40625 113.984375 L 1604.792969 113.984375 L 1642.664062 0 " fill-opacity="1" fill-rule="nonzero"/></g><g clip-path="url(#id10)"><path fill="#1ea589" d="M -34.742188 793.277344 L 78.871094 793.277344 L 41 907.257812 L -72.609375 907.257812 L -34.742188 793.277344 " fill-opacity="1" fill-rule="nonzero"/></g><g clip-path="url(#id11)"><path fill="#1ea589" d="M 188.972656 793.277344 L 302.582031 793.277344 L 264.710938 907.257812 L 151.101562 907.257812 L 188.972656 793.277344 " fill-opacity="1" fill-rule="nonzero"/></g><g clip-path="url(#id12)"><path fill="#1ea589" d="M 412.683594 793.277344 L 526.292969 793.277344 L 488.421875 907.257812 L 374.8125 907.257812 L 412.683594 793.277344 " fill-opacity="1" fill-rule="nonzero"/></g><g clip-path="url(#id13)"><path fill="#1ea589" d="M 636.269531 793.277344 L 749.882812 793.277344 L 712.011719 907.257812 L 598.402344 907.257812 L 636.269531 793.277344 " fill-opacity="1" fill-rule="nonzero"/></g><g clip-path="url(#id14)"><path fill="#1ea589" d="M 859.859375 793.277344 L 973.46875 793.277344 L 935.597656 907.257812 L 821.988281 907.257812 L 859.859375 793.277344 " fill-opacity="1" fill-rule="nonzero"/></g><g clip-path="url(#id15)"><path fill="#1ea589" d="M 1083.695312 793.277344 L 1197.304688 793.277344 L 1159.433594 907.257812 L 1045.824219 907.257812 L 1083.695312 793.277344 " fill-opacity="1" fill-rule="nonzero"/></g><g clip-path="url(#id16)"><path fill="#1ea589" d="M 1307.28125 793.277344 L 1420.894531 793.277344 L 1383.023438 907.257812 L 1269.414062 907.257812 L 1307.28125 793.277344 " fill-opacity="1" fill-rule="nonzero"/></g><g clip-path="url(#id17)"><path fill="#1ea589" d="M 1530.871094 793.277344 L 1644.480469 793.277344 L 1606.609375 907.257812 L 1493 907.257812 L 1530.871094 793.277344 " fill-opacity="1" fill-rule="nonzero"/></g><g clip-path="url(#id18)"><path fill="#1ea589" d="M 39.507812 111.335938 L 153.121094 111.335938 L 115.25 225.320312 L 1.636719 225.320312 L 39.507812 111.335938 " fill-opacity="1" fill-rule="nonzero"/></g><g clip-path="url(#id19)"><path fill="#1ea589" d="M 263.21875 111.335938 L 376.832031 111.335938 L 338.960938 225.320312 L 225.351562 225.320312 L 263.21875 111.335938 " fill-opacity="1" fill-rule="nonzero"/></g><g clip-path="url(#id20)"><path fill="#1ea589" d="M 486.933594 111.335938 L 600.542969 111.335938 L 562.671875 225.320312 L 449.0625 225.320312 L 486.933594 111.335938 " fill-opacity="1" fill-rule="nonzero"/></g><g clip-path="url(#id21)"><path fill="#1ea589" d="M 710.519531 111.335938 L 824.128906 111.335938 L 786.261719 225.320312 L 672.648438 225.320312 L 710.519531 111.335938 " fill-opacity="1" fill-rule="nonzero"/></g><g clip-path="url(#id22)"><path fill="#1ea589" d="M 934.109375 111.335938 L 1047.71875 111.335938 L 1009.847656 225.320312 L 896.238281 225.320312 L 934.109375 111.335938 " fill-opacity="1" fill-rule="nonzero"/></g><g clip-path="url(#id23)"><path fill="#1ea589" d="M 1157.945312 111.335938 L 1271.554688 111.335938 L 1233.683594 225.320312 L 1120.074219 225.320312 L 1157.945312 111.335938 " fill-opacity="1" fill-rule="nonzero"/></g><g clip-path="url(#id24)"><path fill="#1ea589" d="M 1381.53125 111.335938 L 1495.140625 111.335938 L 1457.273438 225.320312 L 1343.660156 225.320312 L 1381.53125 111.335938 " fill-opacity="1" fill-rule="nonzero"/></g><g clip-path="url(#id25)"><path fill="#1ea589" d="M 1605.121094 111.335938 L 1718.730469 111.335938 L 1680.859375 225.320312 L 1567.25 225.320312 L 1605.121094 111.335938 " fill-opacity="1" fill-rule="nonzero"/></g><g clip-path="url(#id26)"><path fill="#1ea589" d="M 2.332031 680.761719 L 115.941406 680.761719 L 78.070312 794.742188 L -35.539062 794.742188 L 2.332031 680.761719 " fill-opacity="1" fill-rule="nonzero"/></g><g clip-path="url(#id27)"><path fill="#1ea589" d="M 226.042969 680.761719 L 339.652344 680.761719 L 301.785156 794.742188 L 188.171875 794.742188 L 226.042969 680.761719 " fill-opacity="1" fill-rule="nonzero"/></g><g clip-path="url(#id28)"><path fill="#1ea589" d="M 449.753906 680.761719 L 563.367188 680.761719 L 525.496094 794.742188 L 411.882812 794.742188 L 449.753906 680.761719 " fill-opacity="1" fill-rule="nonzero"/></g><g clip-path="url(#id29)"><path fill="#1ea589" d="M 673.34375 680.761719 L 786.953125 680.761719 L 749.082031 794.742188 L 635.472656 794.742188 L 673.34375 680.761719 " fill-opacity="1" fill-rule="nonzero"/></g><g clip-path="url(#id30)"><path fill="#1ea589" d="M 896.929688 680.761719 L 1010.542969 680.761719 L 972.671875 794.742188 L 859.0625 794.742188 L 896.929688 680.761719 " fill-opacity="1" fill-rule="nonzero"/></g><g clip-path="url(#id31)"><path fill="#1ea589" d="M 1120.765625 680.761719 L 1234.378906 680.761719 L 1196.507812 794.742188 L 1082.894531 794.742188 L 1120.765625 680.761719 " fill-opacity="1" fill-rule="nonzero"/></g><g clip-path="url(#id32)"><path fill="#1ea589" d="M 1344.355469 680.761719 L 1457.964844 680.761719 L 1420.09375 794.742188 L 1306.484375 794.742188 L 1344.355469 680.761719 " fill-opacity="1" fill-rule="nonzero"/></g><g clip-path="url(#id33)"><path fill="#1ea589" d="M 1567.941406 680.761719 L 1681.554688 680.761719 L 1643.683594 794.742188 L 1530.074219 794.742188 L 1567.941406 680.761719 " fill-opacity="1" fill-rule="nonzero"/></g><g clip-path="url(#id34)"><path fill="#2f323f" d="M 885.125 434.394531 C 878.539062 430.53125 871.195312 430.53125 864.609375 434.394531 L 816.265625 462.199219 C 809.683594 466.0625 806.210938 472.242188 806.210938 479.972656 L 806.210938 535.578125 C 806.210938 543.304688 809.683594 549.484375 816.265625 553.351562 L 864.609375 581.152344 C 871.195312 585.015625 878.539062 585.015625 885.125 581.152344 L 933.46875 553.351562 C 940.050781 549.484375 943.527344 543.304688 943.527344 535.578125 L 943.527344 479.972656 C 943.527344 472.242188 940.050781 466.0625 933.46875 462.199219 Z M 940.050781 450.996094 C 950.492188 457.175781 956.679688 467.597656 956.679688 479.972656 L 956.679688 535.578125 C 956.679688 547.949219 950.492188 558.371094 940.050781 564.550781 L 891.695312 592.351562 C 881.253906 598.53125 868.484375 598.53125 858.042969 592.351562 L 809.683594 564.550781 C 799.246094 558.371094 793.054688 547.949219 793.054688 535.578125 L 793.054688 479.972656 C 793.054688 467.597656 799.246094 457.175781 809.683594 450.996094 L 858.042969 423.195312 C 868.484375 417.003906 881.253906 417.003906 891.695312 423.195312 L 940.050781 450.996094 " fill-opacity="1" fill-rule="nonzero"/></g><g clip-path="url(#id35)"><path fill="#2f323f" d="M 883.867188 444.734375 C 878.191406 441.402344 871.863281 441.402344 866.1875 444.734375 L 824.523438 468.703125 C 818.847656 472.039062 815.855469 477.363281 815.855469 484.03125 L 815.855469 531.976562 C 815.855469 538.640625 818.847656 543.96875 824.523438 547.300781 L 866.1875 571.273438 C 871.863281 574.605469 878.191406 574.605469 883.867188 571.273438 L 925.53125 547.300781 C 931.203125 543.96875 934.199219 538.640625 934.199219 531.976562 L 934.199219 484.03125 C 934.199219 477.363281 931.203125 472.039062 925.53125 468.703125 Z M 931.203125 459.050781 C 940.203125 464.375 945.535156 473.363281 945.535156 484.03125 L 945.535156 531.976562 C 945.535156 542.644531 940.203125 551.632812 931.203125 556.957031 L 889.527344 580.929688 C 880.53125 586.257812 869.523438 586.257812 860.523438 580.929688 L 818.847656 556.957031 C 809.851562 551.632812 804.519531 542.644531 804.519531 531.976562 L 804.519531 484.03125 C 804.519531 473.363281 809.851562 464.375 818.847656 459.050781 L 860.523438 435.078125 C 869.523438 429.734375 880.53125 429.734375 889.527344 435.078125 L 931.203125 459.050781 " fill-opacity="1" fill-rule="nonzero"/></g><g clip-path="url(#id36)"><path fill="#ffffff" d="M 843.59375 394.347656 C 843.59375 380.992188 857.332031 370.164062 874.28125 370.164062 C 891.230469 370.164062 904.972656 380.992188 904.972656 394.347656 L 904.972656 468.746094 C 904.972656 482.101562 891.230469 492.929688 874.28125 492.929688 C 857.332031 492.929688 843.59375 482.101562 843.59375 468.746094 L 843.59375 394.347656 " fill-opacity="1" fill-rule="nonzero"/></g><g clip-path="url(#id37)"><path fill="#1ea589" d="M 856.296875 409.210938 C 856.296875 398.488281 864.730469 389.800781 875.140625 389.800781 C 885.546875 389.800781 893.984375 398.488281 893.984375 409.210938 L 893.984375 468.925781 C 893.984375 479.644531 885.546875 488.335938 875.140625 488.335938 C 864.730469 488.335938 856.296875 479.644531 856.296875 468.925781 L 856.296875 409.210938 " fill-opacity="1" fill-rule="nonzero"/></g><g fill="#2f323f" fill-opacity="1"><g transform="translate(68.323934, 342.956743)"><g><path d="M 98.03125 0 L 87.8125 0 L 77.40625 -15.390625 L 22 -15.390625 L 11.640625 0 L 1.421875 0 L 47.46875 -68.140625 L 51.9375 -68.140625 Z M 71.703125 -23.859375 L 49.703125 -56.359375 L 27.75 -23.859375 Z M 71.703125 -23.859375 "/></g></g><g transform="translate(167.776859, 342.956743)"><g><path d="M 67.703125 0 C 73.535156 0 78.519531 -2.066406 82.65625 -6.203125 C 86.789062 -10.335938 88.859375 -15.316406 88.859375 -21.140625 L 80.390625 -21.140625 C 80.390625 -17.660156 79.15625 -14.675781 76.6875 -12.1875 C 74.21875 -9.695312 71.222656 -8.453125 67.703125 -8.453125 L 28.265625 -8.453125 C 24.785156 -8.453125 21.800781 -9.695312 19.3125 -12.1875 C 16.820312 -14.675781 15.578125 -17.660156 15.578125 -21.140625 L 15.578125 -47.046875 C 15.578125 -50.523438 16.820312 -53.507812 19.3125 -56 C 21.800781 -58.488281 24.785156 -59.734375 28.265625 -59.734375 L 67.703125 -59.734375 C 71.222656 -59.734375 74.21875 -58.488281 76.6875 -56 C 79.15625 -53.507812 80.390625 -50.523438 80.390625 -47.046875 L 88.859375 -47.046875 C 88.859375 -52.867188 86.789062 -57.847656 82.65625 -61.984375 C 78.519531 -66.117188 73.535156 -68.1875 67.703125 -68.1875 L 28.265625 -68.1875 C 22.441406 -68.1875 17.460938 -66.117188 13.328125 -61.984375 C 9.191406 -57.847656 7.125 -52.867188 7.125 -47.046875 L 7.125 -21.140625 C 7.125 -15.316406 9.191406 -10.335938 13.328125 -6.203125 C 17.460938 -2.066406 22.441406 0 28.265625 0 Z M 67.703125 0 "/></g></g><g transform="translate(263.761048, 342.956743)"><g><path d="M 67.703125 0 C 73.535156 0 78.519531 -2.066406 82.65625 -6.203125 C 86.789062 -10.335938 88.859375 -15.316406 88.859375 -21.140625 L 80.390625 -21.140625 C 80.390625 -17.660156 79.15625 -14.675781 76.6875 -12.1875 C 74.21875 -9.695312 71.222656 -8.453125 67.703125 -8.453125 L 28.265625 -8.453125 C 24.785156 -8.453125 21.800781 -9.695312 19.3125 -12.1875 C 16.820312 -14.675781 15.578125 -17.660156 15.578125 -21.140625 L 15.578125 -47.046875 C 15.578125 -50.523438 16.820312 -53.507812 19.3125 -56 C 21.800781 -58.488281 24.785156 -59.734375 28.265625 -59.734375 L 67.703125 -59.734375 C 71.222656 -59.734375 74.21875 -58.488281 76.6875 -56 C 79.15625 -53.507812 80.390625 -50.523438 80.390625 -47.046875 L 88.859375 -47.046875 C 88.859375 -52.867188 86.789062 -57.847656 82.65625 -61.984375 C 78.519531 -66.117188 73.535156 -68.1875 67.703125 -68.1875 L 28.265625 -68.1875 C 22.441406 -68.1875 17.460938 -66.117188 13.328125 -61.984375 C 9.191406 -57.847656 7.125 -52.867188 7.125 -47.046875 L 7.125 -21.140625 C 7.125 -15.316406 9.191406 -10.335938 13.328125 -6.203125 C 17.460938 -2.066406 22.441406 0 28.265625 0 Z M 67.703125 0 "/></g></g><g transform="translate(359.745238, 342.956743)"><g><path d="M 87 0 L 9.5 0 L 9.5 -68.1875 L 87 -68.1875 L 87 -59.734375 L 17.96875 -59.734375 L 17.96875 -38.296875 L 79.015625 -38.296875 L 79.015625 -29.84375 L 17.96875 -29.84375 L 17.96875 -8.453125 L 87 -8.453125 Z M 87 0 "/></g></g><g transform="translate(453.876267, 342.956743)"><g><path d="M 73.359375 0 L 22.625 0 C 18.34375 0 14.6875 -1.507812 11.65625 -4.53125 C 8.632812 -7.5625 7.125 -11.210938 7.125 -15.484375 L 15.578125 -15.484375 C 15.578125 -13.554688 16.265625 -11.898438 17.640625 -10.515625 C 19.023438 -9.140625 20.6875 -8.453125 22.625 -8.453125 L 73.359375 -8.453125 C 75.296875 -8.453125 76.953125 -9.140625 78.328125 -10.515625 C 79.703125 -11.898438 80.390625 -13.554688 80.390625 -15.484375 L 80.390625 -22.8125 C 80.390625 -24.738281 79.703125 -26.390625 78.328125 -27.765625 C 76.953125 -29.148438 75.296875 -29.84375 73.359375 -29.84375 L 22.625 -29.84375 C 18.34375 -29.84375 14.6875 -31.351562 11.65625 -34.375 C 8.632812 -37.40625 7.125 -41.054688 7.125 -45.328125 L 7.125 -52.640625 C 7.125 -56.921875 8.632812 -60.570312 11.65625 -63.59375 C 14.6875 -66.625 18.34375 -68.140625 22.625 -68.140625 L 73.359375 -68.140625 C 77.640625 -68.140625 81.289062 -66.625 84.3125 -63.59375 C 87.34375 -60.570312 88.859375 -56.921875 88.859375 -52.640625 L 80.390625 -52.640625 C 80.390625 -54.578125 79.703125 -56.234375 78.328125 -57.609375 C 76.953125 -58.992188 75.296875 -59.6875 73.359375 -59.6875 L 22.625 -59.6875 C 20.6875 -59.6875 19.023438 -58.992188 17.640625 -57.609375 C 16.265625 -56.234375 15.578125 -54.578125 15.578125 -52.640625 L 15.578125 -45.328125 C 15.578125 -43.398438 16.265625 -41.742188 17.640625 -40.359375 C 19.023438 -38.984375 20.6875 -38.296875 22.625 -38.296875 L 73.359375 -38.296875 C 77.640625 -38.296875 81.289062 -36.78125 84.3125 -33.75 C 87.34375 -30.726562 88.859375 -27.082031 88.859375 -22.8125 L 88.859375 -15.484375 C 88.859375 -11.210938 87.34375 -7.5625 84.3125 -4.53125 C 81.289062 -1.507812 77.640625 0 73.359375 0 Z M 73.359375 0 "/></g></g><g transform="translate(549.860456, 342.956743)"><g><path d="M 67.703125 0 C 73.535156 0 78.519531 -2.066406 82.65625 -6.203125 C 86.789062 -10.335938 88.859375 -15.316406 88.859375 -21.140625 L 88.859375 -47.046875 C 88.859375 -52.867188 86.789062 -57.847656 82.65625 -61.984375 C 78.519531 -66.117188 73.535156 -68.1875 67.703125 -68.1875 L 28.265625 -68.1875 C 22.441406 -68.1875 17.460938 -66.117188 13.328125 -61.984375 C 9.191406 -57.847656 7.125 -52.867188 7.125 -47.046875 L 7.125 -21.140625 C 7.125 -15.316406 9.191406 -10.335938 13.328125 -6.203125 C 17.460938 -2.066406 22.441406 0 28.265625 0 Z M 67.703125 -8.453125 L 28.265625 -8.453125 C 24.785156 -8.453125 21.800781 -9.695312 19.3125 -12.1875 C 16.820312 -14.675781 15.578125 -17.660156 15.578125 -21.140625 L 15.578125 -47.046875 C 15.578125 -50.523438 16.820312 -53.507812 19.3125 -56 C 21.800781 -58.488281 24.785156 -59.734375 28.265625 -59.734375 L 67.703125 -59.734375 C 71.222656 -59.734375 74.21875 -58.488281 76.6875 -56 C 79.15625 -53.507812 80.390625 -50.523438 80.390625 -47.046875 L 80.390625 -21.140625 C 80.390625 -17.660156 79.15625 -14.675781 76.6875 -12.1875 C 74.21875 -9.695312 71.222656 -8.453125 67.703125 -8.453125 Z M 67.703125 -8.453125 "/></g></g><g transform="translate(645.844646, 342.956743)"><g/></g><g transform="translate(669.983244, 342.956743)"><g><path d="M 91.234375 0 L 85.484375 0 L 17.96875 -55.015625 L 17.96875 0 L 9.5 0 L 9.5 -68.140625 L 15.25 -68.140625 L 82.765625 -13.109375 L 82.765625 -68.140625 L 91.234375 -68.140625 Z M 91.234375 0 "/></g></g><g transform="translate(770.719126, 342.956743)"><g><path d="M 67.703125 0 C 73.535156 0 78.519531 -2.066406 82.65625 -6.203125 C 86.789062 -10.335938 88.859375 -15.316406 88.859375 -21.140625 L 88.859375 -47.046875 C 88.859375 -52.867188 86.789062 -57.847656 82.65625 -61.984375 C 78.519531 -66.117188 73.535156 -68.1875 67.703125 -68.1875 L 28.265625 -68.1875 C 22.441406 -68.1875 17.460938 -66.117188 13.328125 -61.984375 C 9.191406 -57.847656 7.125 -52.867188 7.125 -47.046875 L 7.125 -21.140625 C 7.125 -15.316406 9.191406 -10.335938 13.328125 -6.203125 C 17.460938 -2.066406 22.441406 0 28.265625 0 Z M 67.703125 -8.453125 L 28.265625 -8.453125 C 24.785156 -8.453125 21.800781 -9.695312 19.3125 -12.1875 C 16.820312 -14.675781 15.578125 -17.660156 15.578125 -21.140625 L 15.578125 -47.046875 C 15.578125 -50.523438 16.820312 -53.507812 19.3125 -56 C 21.800781 -58.488281 24.785156 -59.734375 28.265625 -59.734375 L 67.703125 -59.734375 C 71.222656 -59.734375 74.21875 -58.488281 76.6875 -56 C 79.15625 -53.507812 80.390625 -50.523438 80.390625 -47.046875 L 80.390625 -21.140625 C 80.390625 -17.660156 79.15625 -14.675781 76.6875 -12.1875 C 74.21875 -9.695312 71.222656 -8.453125 67.703125 -8.453125 Z M 67.703125 -8.453125 "/></g></g><g transform="translate(866.703315, 342.956743)"><g/></g><g transform="translate(890.841914, 342.956743)"><g><path d="M 17.96875 0 L 9.5 0 L 9.5 -68.140625 L 75.734375 -68.140625 C 80.015625 -68.140625 83.664062 -66.625 86.6875 -63.59375 C 89.71875 -60.570312 91.234375 -56.921875 91.234375 -52.640625 L 91.234375 -41.09375 C 91.234375 -36.820312 89.71875 -33.171875 86.6875 -30.140625 C 83.664062 -27.117188 80.015625 -25.609375 75.734375 -25.609375 L 17.96875 -25.609375 Z M 75.734375 -34.0625 C 77.671875 -34.0625 79.328125 -34.75 80.703125 -36.125 C 82.078125 -37.507812 82.765625 -39.164062 82.765625 -41.09375 L 82.765625 -52.640625 C 82.765625 -54.578125 82.078125 -56.234375 80.703125 -57.609375 C 79.328125 -58.992188 77.671875 -59.6875 75.734375 -59.6875 L 17.96875 -59.6875 L 17.96875 -34.0625 Z M 75.734375 -34.0625 "/></g></g><g transform="translate(989.201949, 342.956743)"><g><path d="M 87 0 L 9.5 0 L 9.5 -68.1875 L 87 -68.1875 L 87 -59.734375 L 17.96875 -59.734375 L 17.96875 -38.296875 L 79.015625 -38.296875 L 79.015625 -29.84375 L 17.96875 -29.84375 L 17.96875 -8.453125 L 87 -8.453125 Z M 87 0 "/></g></g><g transform="translate(1083.332978, 342.956743)"><g><path d="M 91.234375 0 L 82.765625 0 L 82.765625 -18.578125 C 82.765625 -20.515625 82.078125 -22.171875 80.703125 -23.546875 C 79.328125 -24.921875 77.671875 -25.609375 75.734375 -25.609375 L 17.96875 -25.609375 L 17.96875 0 L 9.5 0 L 9.5 -68.140625 L 75.734375 -68.140625 C 80.015625 -68.140625 83.664062 -66.625 86.6875 -63.59375 C 89.71875 -60.570312 91.234375 -56.921875 91.234375 -52.640625 L 91.234375 -41.09375 C 91.234375 -36.664062 89.617188 -32.914062 86.390625 -29.84375 C 89.617188 -26.769531 91.234375 -23.015625 91.234375 -18.578125 Z M 75.734375 -34.0625 C 77.671875 -34.0625 79.328125 -34.75 80.703125 -36.125 C 82.078125 -37.507812 82.765625 -39.164062 82.765625 -41.09375 L 82.765625 -52.640625 C 82.765625 -54.578125 82.078125 -56.234375 80.703125 -57.609375 C 79.328125 -58.992188 77.671875 -59.6875 75.734375 -59.6875 L 17.96875 -59.6875 L 17.96875 -34.0625 Z M 75.734375 -34.0625 "/></g></g><g transform="translate(1181.693014, 342.956743)"><g><path d="M 104.34375 0 L 95.890625 0 L 95.890625 -50.84375 L 59.109375 0 L 54.734375 0 L 17.96875 -50.84375 L 17.96875 0 L 9.5 0 L 9.5 -68.140625 L 15.875 -68.140625 L 56.921875 -11.40625 L 97.9375 -68.140625 L 104.34375 -68.140625 Z M 104.34375 0 "/></g></g><g transform="translate(1295.543567, 342.956743)"><g><path d="M 17.96875 0 L 17.96875 -68.140625 L 9.5 -68.140625 L 9.5 0 Z M 17.96875 0 "/></g></g><g transform="translate(1323.00835, 342.956743)"><g><path d="M 43.421875 0 L 34.96875 0 L 34.96875 -59.6875 L 1.421875 -59.6875 L 1.421875 -68.140625 L 76.96875 -68.140625 L 76.96875 -59.6875 L 43.421875 -59.6875 Z M 43.421875 0 "/></g></g><g transform="translate(1401.411276, 342.956743)"><g><path d="M 17.96875 0 L 17.96875 -68.140625 L 9.5 -68.140625 L 9.5 0 Z M 17.96875 0 "/></g></g><g transform="translate(1428.876058, 342.956743)"><g><path d="M 70.078125 0 C 75.910156 0 80.894531 -2.066406 85.03125 -6.203125 C 89.164062 -10.335938 91.234375 -15.316406 91.234375 -21.140625 L 91.234375 -47.046875 C 91.234375 -52.867188 89.164062 -57.847656 85.03125 -61.984375 C 80.894531 -66.117188 75.910156 -68.1875 70.078125 -68.1875 L 9.5 -68.1875 L 9.5 0 Z M 70.078125 -8.453125 L 17.96875 -8.453125 L 17.96875 -59.734375 L 70.078125 -59.734375 C 73.597656 -59.734375 76.59375 -58.488281 79.0625 -56 C 81.53125 -53.507812 82.765625 -50.523438 82.765625 -47.046875 L 82.765625 -21.140625 C 82.765625 -17.660156 81.53125 -14.675781 79.0625 -12.1875 C 76.59375 -9.695312 73.597656 -8.453125 70.078125 -8.453125 Z M 70.078125 -8.453125 "/></g></g><g transform="translate(1527.236094, 342.956743)"><g><path d="M 67.703125 0 C 73.535156 0 78.519531 -2.066406 82.65625 -6.203125 C 86.789062 -10.335938 88.859375 -15.316406 88.859375 -21.140625 L 88.859375 -47.046875 C 88.859375 -52.867188 86.789062 -57.847656 82.65625 -61.984375 C 78.519531 -66.117188 73.535156 -68.1875 67.703125 -68.1875 L 28.265625 -68.1875 C 22.441406 -68.1875 17.460938 -66.117188 13.328125 -61.984375 C 9.191406 -57.847656 7.125 -52.867188 7.125 -47.046875 L 7.125 -21.140625 C 7.125 -15.316406 9.191406 -10.335938 13.328125 -6.203125 C 17.460938 -2.066406 22.441406 0 28.265625 0 Z M 67.703125 -8.453125 L 28.265625 -8.453125 C 24.785156 -8.453125 21.800781 -9.695312 19.3125 -12.1875 C 16.820312 -14.675781 15.578125 -17.660156 15.578125 -21.140625 L 15.578125 -47.046875 C 15.578125 -50.523438 16.820312 -53.507812 19.3125 -56 C 21.800781 -58.488281 24.785156 -59.734375 28.265625 -59.734375 L 67.703125 -59.734375 C 71.222656 -59.734375 74.21875 -58.488281 76.6875 -56 C 79.15625 -53.507812 80.390625 -50.523438 80.390625 -47.046875 L 80.390625 -21.140625 C 80.390625 -17.660156 79.15625 -14.675781 76.6875 -12.1875 C 74.21875 -9.695312 71.222656 -8.453125 67.703125 -8.453125 Z M 67.703125 -8.453125 "/></g></g></g></svg>